<svg id="f88f9f50-b282-423b-a55c-04e78b2ba178" data-name="Layer 1" xmlns="http://www.w3.org/2000/svg" viewBox="0 0 110.08 38.28"><path d="M96.17,3.67a2,2,0,0,0,0-.24c0-.06,0-.12,0-.2-.25.13-.48.29-.71.44Z" transform="translate(0 -0.36)" fill="#f40800"/><path d="M103.52,2.53A14.24,14.24,0,0,0,101,1.19,21.23,21.23,0,0,0,98.88.41h0l-.2,0c-.18.3-.36.61-.53.92s-.46.92-.66,1.4a9.57,9.57,0,0,0-.33,1h7.68a.52.52,0,0,0-.1-.11A8,8,0,0,0,103.52,2.53Z" transform="translate(0 -0.36)" fill="#f40800"/><path d="M97,4.47c-.07.42-.12.85-.15,1.26s0,.81,0,1.22v.24h4.44a13.68,13.68,0,0,1,4.69,0h1.22a10.44,10.44,0,0,0-.74-1.5,10.79,10.79,0,0,0-1.54-2H97.16C97.09,3.93,97,4.2,97,4.47Z" transform="translate(0 -0.36)" fill="#f58d00"/><path d="M95.75,7.19a1,1,0,0,1,0-.17,8.37,8.37,0,0,1,0-1c0-.18,0-.36,0-.54.06-.41.13-.82.2-1.22,0-.2.08-.39.12-.59h-.62c-.25.15-.51.29-.74.46a12.76,12.76,0,0,0-1.6,1.32c-.38.38-.77.76-1.11,1.17-.15.18-.28.38-.41.57Z" transform="translate(0 -0.36)" fill="#f58d00"/><path d="M107.25,7.49c0-.11-.1-.22-.15-.34h-1.48A15.22,15.22,0,0,1,107.25,7.49Z" transform="translate(0 -0.36)" fill="#fbe500"/><path d="M95.75,8a8.61,8.61,0,0,1,0-.88h-4a11.07,11.07,0,0,0-.92,1.51c-.25.48-.48,1-.7,1.47-.07.16-.15.34-.23.54h6.4c-.12-.41-.24-.82-.33-1.24S95.8,8.5,95.75,8Z" transform="translate(0 -0.36)" fill="#fbe500"/><path d="M102.31,7.7h0c.15.24.3.46.44.69a10.37,10.37,0,0,1,1,2.27h6c.08-.21.15-.42.22-.64l.06-.23A13.44,13.44,0,0,0,102.31,7.7Z" transform="translate(0 -0.36)" fill="#fbe500"/><path d="M96.77,7.15a12.79,12.79,0,0,0,.11,1.52,13.81,13.81,0,0,1,4.55-1.52Z" transform="translate(0 -0.36)" fill="#fbe500"/><path d="M103.79,10.63c0,.11.09.22.13.34a9.63,9.63,0,0,1,.32,1.92,8.51,8.51,0,0,1,0,1l0,.29h3.87a12.35,12.35,0,0,0,1.2-2.2c.2-.45.37-.9.53-1.36Z" transform="translate(0 -0.36)" fill="#2f9f00"/><path d="M90,12.3c.47.24,1,.48,1.44.7a7.13,7.13,0,0,0,.91.35,9.62,9.62,0,0,0,1.9.41c.33,0,.65.05,1,.05s.58,0,.87,0q.7-.06,1.41-.18c-.07-.14-.14-.26-.21-.39s-.23-.51-.35-.76A12,12,0,0,1,96.34,11l-.09-.37H89.88c-.14.35-.31.77-.51,1.36h0Z" transform="translate(0 -0.36)" fill="#2f9f00"/><path d="M103.29,13.16v-.22a30.2,30.2,0,0,1-4.13,1.25h4.13Z" transform="translate(0 -0.36)" fill="#2f9f00"/><path d="M104.21,14.15a30.09,30.09,0,0,1-.49,3.52h.35l.6-.32A12.11,12.11,0,0,0,106.55,16,11.56,11.56,0,0,0,108,14.26l.06-.11Z" transform="translate(0 -0.36)" fill="#2043b7"/><path d="M103.14,15.88c.07-.4.12-1,.14-1.31s0-.28,0-.42h-4a14.53,14.53,0,0,1-6.5.14h0a.38.38,0,0,0,0,.1c.12.3.24.61.38.9a10.42,10.42,0,0,0,1.24,1.91c.13.16.27.31.41.47h7.92A10.94,10.94,0,0,0,103.14,15.88Z" transform="translate(0 -0.36)" fill="#2043b7"/><path d="M103.73,17.61c0,.09,0,.18,0,.26l.49-.26Z" transform="translate(0 -0.36)" fill="#84189e"/><path d="M95.77,18.57a4.19,4.19,0,0,0,.33.26,12.85,12.85,0,0,0,2.23,1.25c.54.23,1.07.45,1.62.65s.87.31,1.31.43l.15-.26.48-.95a13.52,13.52,0,0,0,.81-2c0-.11.06-.21.09-.32h-8A11,11,0,0,0,95.77,18.57Z" transform="translate(0 -0.36)" fill="#84189e"/><path id="b2baf993-f3b8-460c-b125-5ead24673c0f" data-name="Path 47589" d="M8.53,22c-2.94,0-4.1,1.84-4.1,6.59,0,4.91,1,6.86,3.63,6.86a6.14,6.14,0,0,0,4.18-1.76V23A8,8,0,0,0,8.53,22Zm5.75,16.48c-.38,0-.59-.31-.85-.77A4.91,4.91,0,0,1,13,36.38a10.12,10.12,0,0,1-6.14,2.26C2.56,38.64,0,35,0,29c0-3.76.85-6.29,2.56-8a7.12,7.12,0,0,1,5.25-2.15A9.29,9.29,0,0,1,12.24,20V11.53c0-.38.09-.53.47-.61l3.07-.58a2,2,0,0,1,.42,0c.26,0,.35.12.35.54V32.65c0,1.92.08,2.65.76,3.72.13.23.34.42.34.62s0,.19-.25.27l-2.73,1.15a.73.73,0,0,1-.38.08ZM31.65,22.72h-.08a5.33,5.33,0,0,0-1.58-.3c-1,0-2,.57-3.75,2.33V37.52c0,.5,0,.54-.6.54H22.57c-.51,0-.64-.08-.64-.54V25.9a9.42,9.42,0,0,0-.85-4.79c-.13-.23-.38-.53-.38-.76s0-.27.29-.39l2.6-1.07a1.8,1.8,0,0,1,.39-.08c.55,0,.72.65,1,1.23a6.7,6.7,0,0,1,.64,1.84c1.54-1.57,2.86-3.11,5.33-3.11a4.32,4.32,0,0,1,2,.43c.22.11.3.23.3.38a1.09,1.09,0,0,1-.08.31l-1.11,2.45c-.17.31-.26.39-.43.39ZM52.48,37.25c0,.12-.09.24-.3.31l-2.73.92a1.3,1.3,0,0,1-.34.08c-.38,0-.59-.27-.81-.62a6,6,0,0,1-.64-1.57,8.73,8.73,0,0,1-6.09,2.26c-4.69,0-6.1-2.41-6.1-6.28V20.12c0-.39.13-.5.56-.58l3-.65a1.58,1.58,0,0,1,.38,0c.26,0,.43.12.43.5V31.47c0,3,.68,3.94,2.81,3.94a7.37,7.37,0,0,0,4.44-1.68V20.12c0-.39.12-.5.55-.58l3-.65a3.1,3.1,0,0,1,.42-.08c.22,0,.34.12.34.54V33.08a6.1,6.1,0,0,0,.94,3.83.61.61,0,0,1,.17.34Zm12.09,1.31H62c-.43,0-.47,0-.64-.42L54.29,20.31a1.22,1.22,0,0,1-.13-.46c0-.15.13-.27.52-.31l3.24-.46h.21c.3,0,.43.12.55.42l3.67,10.62c.43,1.27.77,2.58,1.11,4a32.47,32.47,0,0,1,1.15-4l4-10.66c.13-.31.25-.42.51-.42s.22,0,.39,0l2.72.46c.35.07.47.15.47.31a1.49,1.49,0,0,1-.12.46L65.25,38.14c-.13.34-.21.42-.68.42Zm13.32-5.83a2.82,2.82,0,0,0,2.75,2.88h.15a6.2,6.2,0,0,0,4-1.84V29.2c-2.69,0-7,.2-7,3.53ZM90.17,37a.29.29,0,0,1-.21.26l-2.61,1.15a1,1,0,0,1-.42.12c-.3,0-.52-.23-.72-.62a6.82,6.82,0,0,1-.72-1.72,7.91,7.91,0,0,1-5.76,2.3c-3.66,0-6-2.15-6-5.52,0-5.75,6.14-6.56,11.17-6.6V25.18c0-2.34-.85-3.19-3.37-3.19a13.37,13.37,0,0,0-4.9,1.12,1.34,1.34,0,0,1-.39.07.38.38,0,0,1-.38-.27L75.12,21a1.06,1.06,0,0,1-.09-.35c0-.49.52-.65.86-.76A17.1,17.1,0,0,1,82,18.82c4.69,0,7,1.72,7,5.78v7.52a7.7,7.7,0,0,0,1,4.52,1.63,1.63,0,0,1,.13.39Z" transform="translate(0 -0.36)" fill="#231f20"/></svg>