<svg xmlns="http://www.w3.org/2000/svg" width="504" height="162"><path d="M122.713 58.497c-1.553 0-2.923.57-4.106 1.717s-1.777 2.532-1.777 4.166v21.815c0 1.47-.226 3.022-.675 4.656s-1.184 3.147-2.205 4.533c-1.023 1.394-2.412 2.536-4.167 3.435s-3.983 1.346-6.68 1.346H53.716c-1.716 0-3.33-.243-4.84-.734s-2.82-1.164-3.922-2.022-1.982-1.795-2.636-2.82-.98-2.1-.98-3.246c0-1.634-.573-3.023-1.715-4.17s-2.534-1.714-4.167-1.714c-1.552 0-2.92.57-4.105 1.714s-1.776 2.535-1.776 4.17c0 2.615.55 5.166 1.654 7.658s2.592 4.7 4.473 6.618 4.064 3.452 6.556 4.595a18.74 18.74 0 0 0 7.905 1.718h55.395c3.5 0 6.698-.815 9.56-2.452s5.288-3.737 7.3-6.312 3.533-5.432 4.597-8.578 1.593-6.27 1.593-9.376V64.38c0-1.633-.573-3.023-1.717-4.166a5.67 5.67 0 0 0-4.168-1.716zM348.332 84.1c-1.473-1.47-3.208-2.634-5.2-3.493s-4.147-1.285-6.433-1.285h-67.775c-1.223 0-2.307-.45-3.245-1.35s-1.4-1.96-1.4-3.187c0-1.307.47-2.4 1.4-3.246s2.022-1.288 3.245-1.288h74.637a5.66 5.66 0 0 0 4.166-1.717 5.67 5.67 0 0 0 1.717-4.166c0-1.633-.574-3.023-1.717-4.166a5.66 5.66 0 0 0-4.166-1.717h-74.4c-2.288 0-4.4.43-6.373 1.288s-3.676 2.023-5.146 3.493a16.64 16.64 0 0 0-3.493 5.148c-.858 1.96-1.286 4.086-1.286 6.37s.428 4.413 1.286 6.374 2.022 3.675 3.493 5.148 3.188 2.634 5.146 3.493c1.964.854 4.085 1.284 6.373 1.284h68.02c1.223 0 2.285.45 3.187 1.35.896.898 1.347 2.004 1.347 3.308a4.16 4.16 0 0 1-1.347 3.125c-.9.858-1.964 1.287-3.187 1.287h-74.758c-1.637 0-3.026.575-4.17 1.718a5.66 5.66 0 0 0-1.715 4.165c0 1.637.57 3.023 1.715 4.166s2.532 1.718 4.17 1.718h74.267c2.285 0 4.432-.408 6.433-1.227s3.736-1.96 5.2-3.43 2.635-3.188 3.493-5.148 1.284-4.085 1.284-6.373-.426-4.43-1.284-6.433-2.023-3.736-3.494-5.2zM459.5 60.214c-1.15-1.146-2.535-1.717-4.17-1.717a5.67 5.67 0 0 0-4.17 1.717 5.66 5.66 0 0 0-1.714 4.166v18.875a29.21 29.21 0 0 0-7.29-2.943c-2.57-.655-5.13-.98-7.66-.98h-42.53c-1.47 0-3.063-.185-4.777-.553a15.08 15.08 0 0 1-4.842-1.961c-1.5-.94-2.776-2.245-3.8-3.922s-1.53-3.817-1.53-6.433V64.38a5.67 5.67 0 0 0-1.714-4.166c-1.148-1.146-2.535-1.717-4.17-1.717a5.67 5.67 0 0 0-4.17 1.717 5.66 5.66 0 0 0-1.714 4.166v41.667a5.66 5.66 0 0 0 1.714 4.166c1.144 1.143 2.532 1.718 4.17 1.718a5.67 5.67 0 0 0 4.169-1.718c1.143-1.143 1.714-2.53 1.714-4.166V87.173a29.41 29.41 0 0 0 7.29 2.943c2.57.655 5.126.98 7.658.98h42.53c1.387 0 2.94.167 4.657.5a14.26 14.26 0 0 1 4.78 1.837c1.47.902 2.736 2.146 3.8 3.74s1.63 3.616 1.714 6.064v2.82a5.66 5.66 0 0 0 1.714 4.166c1.144 1.143 2.532 1.718 4.17 1.718s3.02-.57 4.17-1.718c1.143-1.143 1.714-2.53 1.714-4.166V64.38c0-1.633-.57-3.023-1.714-4.165zM239.137 76.02c-.98-3.104-2.4-5.923-4.228-8.455a24.59 24.59 0 0 0-6.68-6.312c-2.615-1.677-5.597-2.594-8.946-2.758h-6.05l-8.615 11.766h10.868c2.776 0 5.064.5 6.862 1.532s3.207 2.267 4.23 3.737a13.14 13.14 0 0 1 2.083 4.842c.368 1.757.55 3.37.55 4.84s-.184 3.085-.55 4.842a13.11 13.11 0 0 1-2.083 4.843c-1.02 1.473-2.432 2.717-4.23 3.736s-4.085 1.53-6.862 1.53h-49.512c-2.86 0-5.17-.5-6.925-1.53s-3.145-2.267-4.166-3.736a13.08 13.08 0 0 1-2.084-4.843c-.368-1.757-.55-3.37-.55-4.842s.184-3.082.55-4.84a13.09 13.09 0 0 1 2.084-4.842c1.02-1.47 2.4-2.714 4.166-3.737s4.064-1.532 6.925-1.532H179.5l-8.7-11.765h-7.4c-3.515 0-6.66.818-9.438 2.452s-5.146 3.736-7.107 6.312-3.452 5.432-4.473 8.58-1.532 6.27-1.532 9.373c0 3.026.5 6.1 1.47 9.193a29.44 29.44 0 0 0 4.228 8.455 24.36 24.36 0 0 0 6.68 6.312c2.616 1.672 5.596 2.594 8.946 2.758h55.884c3.513 0 6.66-.815 9.438-2.452a24.47 24.47 0 0 0 7.11-6.312c1.962-2.575 3.45-5.432 4.473-8.578s1.532-6.27 1.532-9.376c-.001-3.02-.492-6.084-1.472-9.2z" fill="#1a1a1a"/><path fill="#cf4338" d="M191.967 81.284l14.077-18.766H177.89z"/><path fill="#691c00" d="M194.45 38.838l14.613 19.66 14.554-19.353L208.76 19.5z"/><path fill="#9a281e" d="M192.08 41.697l-13.03 17.35h26.058z"/><path fill="#cf4338" d="M175.12 58.497l30.64-40.794h-29.997l-15.232 21.68z"/><defs ><path  d="M61.772-71.653c.018.072.007.127-.026.2-.053.1-.112.062-.165.128a.64.64 0 0 0-.079.362c-.17.058-.01.227-.015.35-.002.05-.04.105-.045.16-.01.12.017.266.068.37.097.198.268.413.435.544.2.148.365.572.608.63.177.042.384-.104.543-.143.18-.043.397.01.57-.053.222-.08.127-.337.288-.45.104-.074.287-.01.406-.05.2-.07.34-.263.376-.46.016-.082.01-.145.04-.22.04-.103.11-.16.1-.293-.01-.062-.052-.12-.064-.187-.022-.114.002-.224 0-.337-.003-.2.017-.38-.078-.55-.38-.688-1.236-.93-1.975-.79-.18.034-.287.126-.442.207-.17.088-.14.166-.318.224-.08.026-.216.124-.215.224.001.115.005.05.012.17-.02.01-.02-.005-.03-.025"/><path  d="M.44-71.653c.018.072.008.127-.026.2-.052.1-.113.063-.165.128a.63.63 0 0 0-.079.362c-.17.058-.01.227-.015.35-.002.05-.04.105-.045.16-.01.12.017.266.068.37.097.198.268.413.435.544.2.148.365.572.608.63.177.042.384-.104.543-.143.18-.043.397.01.57-.053.222-.08.127-.337.288-.45.104-.074.287-.01.406-.05.2-.07.34-.263.376-.46.016-.082.01-.145.04-.22.038-.103.11-.16.1-.293-.01-.062-.05-.12-.064-.187-.02-.114.002-.224 0-.337-.003-.2.017-.38-.078-.55-.38-.688-1.236-.93-1.975-.79-.18.034-.287.126-.442.207-.17.088-.14.166-.318.224-.08.026-.215.124-.215.224.002.115.005.05.012.17-.02.01-.02-.005-.03-.025"/><path  d="M.495-56.348c.018.072.007.127-.026.2-.053.1-.112.062-.165.128a.64.64 0 0 0-.079.362c-.17.058-.01.227-.015.35-.002.05-.04.105-.045.16-.01.12.017.266.068.37.097.198.268.413.435.544.2.148.365.572.608.63.177.042.384-.104.543-.143.18-.043.397.01.57-.053.222-.08.127-.337.288-.45.104-.074.287-.01.406-.05.2-.07.34-.263.376-.46.016-.082.01-.145.04-.22.04-.103.11-.16.1-.293-.01-.062-.052-.12-.064-.187-.022-.114.002-.224 0-.337-.003-.2.017-.38-.078-.55-.38-.688-1.236-.93-1.975-.79-.18.034-.287.126-.442.207-.17.088-.14.166-.318.224-.08.026-.216.124-.215.224l.013.17c-.02.01-.02-.005-.03-.025"/><path  d="M8.156-41.042c.018.072.007.127-.026.2-.053.1-.112.062-.165.128a.64.64 0 0 0-.079.362c-.17.058-.01.227-.015.35-.002.05-.04.105-.045.16-.01.12.017.266.068.37.097.198.268.413.435.544.2.148.365.572.608.63.177.042.384-.104.543-.143.18-.043.397.01.57-.053.222-.08.127-.337.288-.45.104-.074.287-.01.406-.05.2-.07.34-.263.376-.46.016-.082.01-.145.04-.22.04-.103.11-.16.1-.293-.01-.062-.052-.12-.064-.187-.022-.114.002-.224 0-.337-.003-.2.017-.38-.078-.55-.38-.688-1.236-.93-1.975-.79-.18.034-.287.126-.442.207-.17.088-.14.166-.318.224-.08.026-.216.124-.215.224.001.115.005.05.012.17-.02.012-.02-.004-.03-.024"/></defs></svg>